<?xml version="1.0" encoding="UTF-8" standalone="no"?>
<svg
   width="109"
   height="57"
   viewBox="0 0 109 57"
   fill="none"
   version="1.1"
   id="svg3"
   sodipodi:docname="footer_logo.svg"
   inkscape:version="1.4.2 (f4327f4, 2025-05-13)"
   xmlns:inkscape="http://www.inkscape.org/namespaces/inkscape"
   xmlns:sodipodi="http://sodipodi.sourceforge.net/DTD/sodipodi-0.dtd"
   xmlns="http://www.w3.org/2000/svg"
   xmlns:svg="http://www.w3.org/2000/svg">
  <sodipodi:namedview
     id="namedview3"
     pagecolor="#ffffff"
     bordercolor="#000000"
     borderopacity="0.25"
     inkscape:showpageshadow="2"
     inkscape:pageopacity="0.0"
     inkscape:pagecheckerboard="0"
     inkscape:deskcolor="#d1d1d1"
     inkscape:zoom="9.5893604"
     inkscape:cx="50.994016"
     inkscape:cy="30.502556"
     inkscape:window-width="1920"
     inkscape:window-height="991"
     inkscape:window-x="-9"
     inkscape:window-y="-9"
     inkscape:window-maximized="1"
     inkscape:current-layer="svg3" />
  <defs
     id="defs3">
    <linearGradient
       id="paint0_linear_2261_128"
       x1="219.1"
       y1="39.9983"
       x2="202.599"
       y2="91.4037"
       gradientUnits="userSpaceOnUse">
      <stop
         stop-color="#DF8908"
         id="stop2"
         offset="0.58448756"
         style="stop-color:#0b28d0;stop-opacity:0.89019608;" />
      <stop
         offset="1"
         stop-color="#B415FF"
         id="stop3"
         style="stop-color:#04d9ff;stop-opacity:1;" />
    </linearGradient>
    <linearGradient
       id="paint0_linear_2205_14"
       x1="219.10001"
       y1="39.998299"
       x2="202.599"
       y2="91.403702"
       gradientUnits="userSpaceOnUse"
       gradientTransform="matrix(1.023228,0,0,1.023228,-2.4432842,-0.99952087)">
      <stop
         stop-color="#DF8908"
         id="stop2-0"
         offset="0.5844875"
         style="stop-color:#0b28d0;stop-opacity:0.89019608;" />
      <stop
         offset="1"
         stop-color="#B415FF"
         id="stop3-9"
         style="stop-color:#04d9ff;stop-opacity:1;" />
    </linearGradient>
  </defs>
  <path
     d="m 67.136224,42.375116 c 0,-1.070502 0.930728,-1.903205 1.994578,-1.784612 l 32.028778,3.571168 c 4.06835,0.453699 7.51049,-2.977594 7.07051,-7.047688 -0.45841,-4.228183 -4.83681,-6.841405 -8.775825,-5.236574 L 69.609468,44.037964 c -1.181009,0.481223 -2.473244,-0.387599 -2.473244,-1.662848 z"
     fill="url(#paint0_linear_2205_14)"
     id="path1-8"
     style="fill:url(#paint0_linear_2205_14);stroke-width:1.02323" />
  <path
     d="m 48.229197,40.454838 h -2.23622 L 39.549013,28.297103 V 40.454838 H 37.860438 V 26.864096 h 2.80212 L 46.540622,37.96305 V 26.864096 h 1.688575 z m 11.400159,0 h -1.706829 v -1.086164 q -0.228186,0.155166 -0.620666,0.438116 -0.383351,0.273824 -0.748448,0.438117 -0.428989,0.209931 -0.985763,0.346842 -0.556773,0.146039 -1.305222,0.146039 -1.378242,0 -2.336622,-0.912743 -0.95838,-0.912742 -0.95838,-2.327494 0,-1.159184 0.492881,-1.871123 0.502009,-0.721067 1.423879,-1.131801 0.930998,-0.410734 2.23622,-0.556773 1.305223,-0.146039 2.802121,-0.219058 V 33.4541 q 0,-0.584155 -0.209931,-0.967507 -0.200803,-0.383352 -0.584156,-0.60241 -0.365097,-0.209932 -0.876232,-0.282951 -0.511137,-0.07302 -1.06791,-0.07302 -0.67543,0 -1.506025,0.182549 -0.830596,0.173421 -1.715957,0.511135 h -0.09127 v -1.743338 q 0.502008,-0.136912 1.451261,-0.301206 0.949252,-0.164293 1.871123,-0.164293 1.077036,0 1.871122,0.182549 0.803214,0.173421 1.387369,0.60241 0.575029,0.419861 0.876234,1.086164 0.301205,0.666302 0.301205,1.652064 z m -1.706829,-2.510043 v -2.83863 q -0.784959,0.04563 -1.852868,0.136911 -1.058782,0.09128 -1.679447,0.264696 -0.739322,0.209931 -1.195693,0.657174 -0.456372,0.438117 -0.456372,1.213948 0,0.876234 0.529391,1.323478 0.529391,0.438116 1.615555,0.438116 0.903615,0 1.652065,-0.346842 0.748449,-0.35597 1.387369,-0.848851 z m 10.304867,2.418769 q -0.483753,0.127784 -1.058781,0.209931 -0.565901,0.08215 -1.013145,0.08215 -1.56079,0 -2.373132,-0.839723 -0.81234,-0.839723 -0.81234,-2.692591 v -5.421693 h -1.159184 v -1.442134 h 1.159184 V 27.3296 h 1.715956 v 2.929904 h 3.541442 v 1.442134 h -3.541442 v 4.645861 q 0,0.803214 0.03651,1.259586 0.03651,0.447243 0.255568,0.839723 0.200803,0.365097 0.547646,0.538518 0.35597,0.164294 1.077036,0.164294 0.419862,0 0.876233,-0.118657 0.456372,-0.127784 0.657175,-0.20993 h 0.09127 z m 10.596941,0.09127 h -1.715957 v -5.805045 q 0,-0.702811 -0.08214,-1.314349 -0.08215,-0.620666 -0.301207,-0.967508 -0.228185,-0.383352 -0.657174,-0.5659 -0.428989,-0.191677 -1.113551,-0.191677 -0.702808,0 -1.469511,0.346843 -0.766703,0.346842 -1.469518,0.885361 v 7.612275 H 70.299319 V 26.252559 h 1.715957 v 5.138742 q 0.803217,-0.666302 1.661196,-1.040527 0.857971,-0.374224 1.761591,-0.374224 1.652062,0 2.519167,0.99489 0.867105,0.994889 0.867105,2.866013 z m 11.226741,0 h -1.70683 V 39.36867 q -0.228185,0.155166 -0.620667,0.438116 -0.383348,0.273824 -0.748449,0.438117 -0.42899,0.209931 -0.985761,0.346842 -0.556772,0.146039 -1.305222,0.146039 -1.378243,0 -2.336623,-0.912743 -0.958381,-0.912742 -0.958381,-2.327494 0,-1.159184 0.492884,-1.871123 0.502011,-0.721067 1.423877,-1.131801 0.931001,-0.410734 2.236222,-0.556773 1.305221,-0.146039 2.80212,-0.219058 v -0.264696 q 0,-0.584155 -0.209931,-0.967507 -0.200805,-0.383352 -0.584153,-0.60241 -0.365101,-0.209932 -0.876232,-0.282951 -0.511138,-0.07302 -1.067909,-0.07302 -0.675435,0 -1.506026,0.182549 -0.830598,0.173421 -1.715957,0.511135 h -0.09128 v -1.743338 q 0.502011,-0.136912 1.451257,-0.301206 0.949254,-0.164293 1.871127,-0.164293 1.077037,0 1.87112,0.182549 0.803218,0.173421 1.38737,0.60241 0.575033,0.419861 0.876232,1.086164 0.301207,0.666302 0.301207,1.652064 z m -1.70683,-2.510043 v -2.83863 q -0.784957,0.04563 -1.852867,0.136911 -1.058782,0.09128 -1.679449,0.264696 -0.739322,0.209931 -1.195692,0.657174 -0.45637,0.438117 -0.45637,1.213948 0,0.876234 0.529392,1.323478 0.529391,0.438116 1.615554,0.438116 0.903613,0 1.652062,-0.346842 0.748449,-0.35597 1.38737,-0.848851 z m 13.535984,2.510043 h -1.71596 v -5.805045 q 0,-0.702811 -0.0821,-1.314349 -0.0821,-0.620666 -0.301211,-0.967508 -0.22819,-0.383352 -0.657175,-0.5659 -0.42899,-0.191677 -1.113551,-0.191677 -0.702808,0 -1.469511,0.346843 -0.766703,0.346842 -1.469519,0.885361 v 7.612275 H 93.355207 V 30.2595 h 1.715956 v 1.131801 q 0.803218,-0.666302 1.661189,-1.040527 0.857978,-0.374224 1.761598,-0.374224 1.65206,0 2.51917,0.99489 0.86711,0.994889 0.86711,2.866013 z"
     id="text3-8"
     style="font-size:26.6667px;white-space:pre;fill:#ffffff;fill-opacity:1;stroke-width:0.700986"
     aria-label="Nathan" />
</svg>
