<?xml version="1.0" encoding="UTF-8" standalone="no"?>
<svg
   width="109"
   height="40"
   viewBox="0 0 109 40"
   fill="none"
   version="1.1"
   id="svg3"
   sodipodi:docname="logo.svg"
   inkscape:version="1.4.2 (f4327f4, 2025-05-13)"
   xmlns:inkscape="http://www.inkscape.org/namespaces/inkscape"
   xmlns:sodipodi="http://sodipodi.sourceforge.net/DTD/sodipodi-0.dtd"
   xmlns="http://www.w3.org/2000/svg"
   xmlns:svg="http://www.w3.org/2000/svg">
  <sodipodi:namedview
     id="namedview3"
     pagecolor="#ffffff"
     bordercolor="#000000"
     borderopacity="0.25"
     inkscape:showpageshadow="2"
     inkscape:pageopacity="0.0"
     inkscape:pagecheckerboard="0"
     inkscape:deskcolor="#d1d1d1"
     inkscape:zoom="9.5893604"
     inkscape:cx="39.314405"
     inkscape:cy="9.1246961"
     inkscape:window-width="1920"
     inkscape:window-height="991"
     inkscape:window-x="-9"
     inkscape:window-y="-9"
     inkscape:window-maximized="1"
     inkscape:current-layer="svg3" />
  <path
     d="m 47.520949,29.842239 c 0,-1.527137 1.327742,-2.71504 2.845391,-2.545861 l 45.69106,5.094496 c 5.80376,0.64723 10.71419,-4.247725 10.08652,-10.053969 -0.65394,-6.031769 -6.9,-9.759694 -12.519253,-7.470302 l -42.57548,17.347793 c -1.684784,0.686496 -3.528238,-0.552934 -3.528238,-2.372157 z"
     fill="url(#paint0_linear_2205_14)"
     id="path1"
     style="fill:url(#paint0_linear_2205_14);stroke-width:1.4597" />
  <defs
     id="defs3">
    <rect
       x="0.95860285"
       y="12.461837"
       width="97.482536"
       height="32.961189"
       id="rect3" />
    <linearGradient
       id="paint0_linear_2205_14"
       x1="219.10001"
       y1="39.998299"
       x2="202.599"
       y2="91.403702"
       gradientUnits="userSpaceOnUse"
       gradientTransform="matrix(1.459699,0,0,1.459699,-51.738585,-32.034402)">
      <stop
         stop-color="#DF8908"
         id="stop2"
         offset="0.5844875"
         style="stop-color:#0b28d0;stop-opacity:0.89019608;" />
      <stop
         offset="1"
         stop-color="#B415FF"
         id="stop3"
         style="stop-color:#04d9ff;stop-opacity:1;" />
    </linearGradient>
  </defs>
  <path
     d="M 20.548889,27.102843 H 17.35878 L 8.166061,9.759071 V 27.102843 H 5.7572034 V 7.714797 H 9.754604 l 8.385427,15.833354 V 7.714797 h 2.408858 z m 16.263042,0 h -2.434899 v -1.549481 q -0.325521,0.221354 -0.885418,0.625 -0.546875,0.390626 -1.067709,0.625001 -0.61198,0.29948 -1.406252,0.494792 -0.794272,0.208334 -1.861982,0.208334 -1.966148,0 -3.333337,-1.302085 -1.36719,-1.302085 -1.36719,-3.320317 0,-1.653648 0.703126,-2.669274 0.716147,-1.028647 2.031253,-1.614585 1.328127,-0.585938 3.190108,-0.794272 1.861982,-0.208334 3.997401,-0.3125 v -0.377605 q 0,-0.833334 -0.29948,-1.38021 -0.286458,-0.546876 -0.833334,-0.859376 -0.520834,-0.29948 -1.250001,-0.403647 -0.729168,-0.104166 -1.52344,-0.104166 -0.963543,0 -2.14844,0.260417 -1.184897,0.247396 -2.44792,0.729167 h -0.130208 v -2.486982 q 0.716146,-0.195313 2.070315,-0.429688 1.354168,-0.234375 2.669274,-0.234375 1.53646,0 2.669274,0.260417 1.145835,0.247396 1.979169,0.859376 0.820314,0.598959 1.250002,1.549481 0.429688,0.950522 0.429688,2.356774 z m -2.434899,-3.580734 v -4.049484 q -1.119793,0.0651 -2.643232,0.195312 -1.510419,0.130209 -2.395837,0.377605 -1.054689,0.29948 -1.705731,0.937501 -0.651043,0.625001 -0.651043,1.731773 0,1.250002 0.75521,1.888024 0.755209,0.625 2.30469,0.625 1.289064,0 2.356774,-0.494792 1.06771,-0.507813 1.979169,-1.210939 z m 14.70054,3.450525 q -0.690105,0.182292 -1.510418,0.29948 -0.807293,0.117187 -1.445315,0.117187 -2.226565,0 -3.385421,-1.197918 -1.158855,-1.197918 -1.158855,-3.84115 v -7.734385 h -1.653648 v -2.057295 h 1.653648 V 8.378861 h 2.447919 v 4.179692 h 5.05209 v 2.057295 h -5.05209 v 6.627612 q 0,1.145835 0.05208,1.796878 0.05208,0.638021 0.364584,1.197918 0.286458,0.520834 0.781251,0.76823 0.507813,0.234375 1.53646,0.234375 0.598959,0 1.250001,-0.169271 0.651043,-0.182292 0.937502,-0.299479 h 0.130208 z m 15.117205,0.130209 h -2.44792 v -8.281261 q 0,-1.002605 -0.117187,-1.875002 -0.117188,-0.885418 -0.429689,-1.38021 -0.325521,-0.546876 -0.937501,-0.807293 -0.61198,-0.273438 -1.588543,-0.273438 -1.002606,0 -2.096357,0.494793 -1.093752,0.494792 -2.096357,1.263022 v 10.859389 h -2.44792 V 6.8424 h 2.44792 v 7.330739 q 1.145835,-0.950522 2.369795,-1.484377 1.22396,-0.533855 2.513024,-0.533855 2.356773,0 3.593754,1.419273 1.236981,1.419272 1.236981,4.088547 z m 16.015647,0 h -2.434899 v -1.549481 q -0.325521,0.221354 -0.885418,0.625 -0.546876,0.390626 -1.06771,0.625001 -0.61198,0.29948 -1.406251,0.494792 -0.794272,0.208334 -1.861982,0.208334 -1.966148,0 -3.333337,-1.302085 -1.36719,-1.302085 -1.36719,-3.320317 0,-1.653648 0.703126,-2.669274 0.716147,-1.028647 2.031253,-1.614585 1.328126,-0.585938 3.190108,-0.794272 1.861981,-0.208334 3.997401,-0.3125 v -0.377605 q 0,-0.833334 -0.29948,-1.38021 -0.286458,-0.546876 -0.833334,-0.859376 -0.520834,-0.29948 -1.250002,-0.403647 -0.729167,-0.104166 -1.523439,-0.104166 -0.963543,0 -2.14844,0.260417 -1.184898,0.247396 -2.44792,0.729167 h -0.130209 v -2.486982 q 0.716147,-0.195313 2.070316,-0.429688 1.354168,-0.234375 2.669274,-0.234375 1.53646,0 2.669274,0.260417 1.145835,0.247396 1.979169,0.859376 0.820314,0.598959 1.250002,1.549481 0.429688,0.950522 0.429688,2.356774 z m -2.434899,-3.580734 v -4.049484 q -1.119793,0.0651 -2.643233,0.195312 -1.510418,0.130209 -2.395836,0.377605 -1.054689,0.29948 -1.705731,0.937501 -0.651043,0.625001 -0.651043,1.731773 0,1.250002 0.755209,1.888024 0.75521,0.625 2.304691,0.625 1.289064,0 2.356774,-0.494792 1.067709,-0.507813 1.979169,-1.210939 z m 19.309925,3.580734 h -2.447922 v -8.281261 q 0,-1.002605 -0.117188,-1.875002 -0.117187,-0.885418 -0.429688,-1.38021 -0.325521,-0.546876 -0.937501,-0.807293 -0.61198,-0.273438 -1.588544,-0.273438 -1.002605,0 -2.096356,0.494793 -1.093752,0.494792 -2.096357,1.263022 v 10.859389 h -2.44792 v -14.54429 h 2.44792 v 1.614586 q 1.145835,-0.950522 2.369794,-1.484377 1.22396,-0.533855 2.513024,-0.533855 2.356774,0 3.593755,1.419273 1.236983,1.419272 1.236983,4.088547 z"
     id="text3"
     style="font-size:26.6667px;white-space:pre;fill:#ffffff;fill-opacity:1"
     aria-label="Nathan" />
</svg>
